<svg xmlns="http://www.w3.org/2000/svg" xmlns:ns1="http://sodipodi.sourceforge.net/DTD/sodipodi-0.dtd" xmlns:ns2="http://www.inkscape.org/namespaces/inkscape" width="16" height="16" version="1.1" id="svg1" ns1:docname="text-calendar-symbolic.svg" ns2:version="1.3.2 (091e20ef0f, 2023-11-25, custom)">
  <ns1:namedview id="namedview1" pagecolor="#ffffff" bordercolor="#000000" borderopacity="0.25" ns2:showpageshadow="2" ns2:pageopacity="0.0" ns2:pagecheckerboard="0" ns2:deskcolor="#d1d1d1" ns2:zoom="54.75" ns2:cx="7.9908676" ns2:cy="8" ns2:window-width="2752" ns2:window-height="1080" ns2:window-x="0" ns2:window-y="0" ns2:window-maximized="1" ns2:current-layer="svg1" />
  <defs id="defs1">
    <style id="current-color-scheme" type="text/css">
   .ColorScheme-Text { color:#2e3440; } .ColorScheme-Highlight { color:#88c0d0; } .ColorScheme-NeutralText { color:#d08770; } .ColorScheme-PositiveText { color:#a3be8c; } .ColorScheme-NegativeText { color:#bf616a; }
  </style>
  </defs>
  <path class="ColorScheme-Text" fill="currentColor" d="M5.5 1c-.277 0-.5.227-.5.5V2h1v-.5c0-.277-.223-.5-.5-.5zM6 2v.5a.5.5 0 1 1-1 0V2H3.5C2.669 2 2 2.669 2 3.5v9c0 .831.669 1.5 1.5 1.5h9c.831 0 1.5-.669 1.5-1.5v-9c0-.831-.669-1.5-1.5-1.5H11v.5a.5.5 0 1 1-1 0V2zm4 0h1v-.5a.5.5 0 1 0-1 0zM3.5 6h9c.277 0 .5.223.5.5v6c0 .277-.223.5-.5.5h-9a.499.499 0 0 1-.5-.5v-6c0-.277.223-.5.5-.5z" overflow="visible" style="" id="path1" />
</svg>