<svg xmlns="http://www.w3.org/2000/svg" xmlns:ns1="http://sodipodi.sourceforge.net/DTD/sodipodi-0.dtd" xmlns:ns2="http://www.inkscape.org/namespaces/inkscape" height="16px" viewBox="0 0 16 16" width="16px" version="1.1" id="svg3171" ns1:docname="org.gnome.GHex-symbolic.svg" ns2:version="1.1.2 (0a00cf5339, 2022-02-04)">
  <defs id="defs3175" />
  <ns1:namedview id="namedview3173" pagecolor="#505050" bordercolor="#ffffff" borderopacity="1" ns2:pageshadow="0" ns2:pageopacity="0" ns2:pagecheckerboard="1" showgrid="true" ns2:zoom="39.875" ns2:cx="6.5203762" ns2:cy="8" ns2:window-width="1920" ns2:window-height="1050" ns2:window-x="1920" ns2:window-y="0" ns2:window-maximized="1" ns2:current-layer="g3169" />
  <g id="g3169">
    <path d="M 0.0742188,7.539062 2.492188,4 h 3.40625 c 0,0 2.347656,3.519531 2.324218,3.570312 C 8.199219,7.625 5.914062,11 5.914062,11 H 2.488281 Z m 0,0" id="path3163" style="fill:#2e3440;" />
    <path d="M 6.925781,3.597656 C 6.875,3.445312 9.15625,0 9.15625,0 h 3.664062 c 0,0 2.242188,3.3125 2.253907,3.417969 0.0078,0.105469 -2.261719,3.601562 -2.261719,3.601562 L 9.226562,7.039062 c 0,0 -2.25,-3.300781 -2.300781,-3.441406 z m 0,0" id="path3165" style="fill:#2e3440;" />
    <path d="M 6.722656,11.441406 9.179688,7.984375 h 3.542968 c 0,0 2.410156,3.484375 2.34375,3.601563 -0.0625,0.109374 -2.359375,3.375 -2.359375,3.375 l -3.507812,-0.0039 z m 0,0" id="path3167" style="fill:#2e3440;" />
  </g>
</svg>